REM MD5 9f96fa6867e33cdc0e351889195402a5
FILE "Tiny Toon Adventures - Toonenstein - Geisterstunde! (Germany).bin" BINARY
  TRACK 01 MODE2/2352
    INDEX 01 00:00:00
  TRACK 02 AUDIO
    INDEX 00 61:22:12
    INDEX 01 61:24:12
  TRACK 03 AUDIO
    INDEX 00 62:52:60
    INDEX 01 62:54:60
REM LEADOUT 66:23:56
